<svg width="182" height="16" viewBox="0 0 182 16" fill="none" xmlns="http://www.w3.org/2000/svg">
<path d="M3 8.04V6.56H5.26C5.64667 6.56 5.97333 6.5 6.24 6.38C6.52 6.26 6.73333 6.09333 6.88 5.88C7.02667 5.65333 7.1 5.38 7.1 5.06C7.1 4.58 6.94 4.22 6.62 3.98C6.3 3.74 5.84667 3.62 5.26 3.62H3.86V12.38H5.58C6.02 12.38 6.41333 12.3267 6.76 12.22C7.10667 12.1 7.38 11.9133 7.58 11.66C7.79333 11.3933 7.9 11.0333 7.9 10.58C7.9 10.2867 7.84 10.0333 7.72 9.82C7.6 9.60667 7.43333 9.43333 7.22 9.3C7.00667 9.16667 6.76 9.07333 6.48 9.02C6.21333 8.95333 5.91333 8.92 5.58 8.92H3V7.08H5.96C6.64 7.08 7.3 7.15333 7.94 7.3C8.58 7.44667 9.16 7.68667 9.68 8.02C10.2 8.34 10.6133 8.75333 10.92 9.26C11.24 9.75333 11.4 10.3533 11.4 11.06C11.4 11.9933 11.1733 12.7467 10.72 13.32C10.28 13.8933 9.65333 14.32 8.84 14.6C8.02667 14.8667 7.06667 15 5.96 15H0.48V0.999999H5.62C6.59333 0.999999 7.44667 1.13333 8.18 1.4C8.92667 1.65333 9.51333 2.04667 9.94 2.58C10.38 3.1 10.6 3.76 10.6 4.56C10.6 5.29333 10.38 5.92 9.94 6.44C9.51333 6.96 8.92667 7.36 8.18 7.64C7.44667 7.90667 6.59333 8.04 5.62 8.04H3ZM16.0013 15V12.22H23.0613V15H16.0013ZM16.0013 3.78V0.999999H23.0613V3.78H16.0013ZM16.0013 9V6.28H22.6613V9H16.0013ZM13.7613 0.999999H17.0013V15H13.7613V0.999999ZM25.932 0.999999H34.252V4.02H29.312V15H25.932V0.999999ZM36.137 12.3L36.377 9.72H43.317L43.537 12.3H36.137ZM39.797 6.14L37.837 10.66L37.997 11.4L36.257 15H32.437L39.797 0.12L47.177 15H43.337L41.657 11.54L41.777 10.68L39.797 6.14ZM49.1095 13.64C49.1095 13.1333 49.2895 12.7 49.6495 12.34C50.0095 11.98 50.4562 11.8 50.9895 11.8C51.5495 11.8 52.0029 11.98 52.3495 12.34C52.6962 12.7 52.8695 13.1333 52.8695 13.64C52.8695 14.1467 52.6962 14.58 52.3495 14.94C52.0029 15.3 51.5495 15.48 50.9895 15.48C50.4562 15.48 50.0095 15.3 49.6495 14.94C49.2895 14.58 49.1095 14.1467 49.1095 13.64Z" fill="#FFD700"/>
<path d="M68.0148 0.999999V15H64.5748V4.02H59.9348V9.08C59.9348 10.3867 59.7415 11.4867 59.3548 12.38C58.9815 13.26 58.3882 13.92 57.5748 14.36C56.7615 14.7867 55.7082 15 54.4148 15V12.14C54.7482 12.14 55.0415 12.0733 55.2948 11.94C55.5615 11.8067 55.7815 11.62 55.9548 11.38C56.1415 11.1267 56.2815 10.82 56.3748 10.46C56.4682 10.1 56.5148 9.70667 56.5148 9.28V0.999999H68.0148ZM73.8655 8C73.8655 8.82667 74.0255 9.56 74.3455 10.2C74.6788 10.8267 75.1388 11.32 75.7255 11.68C76.3255 12.04 77.0255 12.22 77.8255 12.22C78.6121 12.22 79.2988 12.04 79.8855 11.68C80.4855 11.32 80.9455 10.8267 81.2655 10.2C81.5988 9.56 81.7655 8.82667 81.7655 8C81.7655 7.17333 81.6055 6.44667 81.2855 5.82C80.9655 5.18 80.5121 4.68 79.9255 4.32C79.3388 3.96 78.6388 3.78 77.8255 3.78C77.0255 3.78 76.3255 3.96 75.7255 4.32C75.1388 4.68 74.6788 5.18 74.3455 5.82C74.0255 6.44667 73.8655 7.17333 73.8655 8ZM70.2855 8C70.2855 6.92 70.4721 5.93333 70.8455 5.04C71.2321 4.14667 71.7655 3.37333 72.4455 2.72C73.1255 2.06667 73.9255 1.56667 74.8455 1.22C75.7655 0.86 76.7588 0.68 77.8255 0.68C78.9055 0.68 79.8988 0.86 80.8055 1.22C81.7255 1.56667 82.5255 2.06667 83.2055 2.72C83.8855 3.37333 84.4121 4.14667 84.7855 5.04C85.1588 5.93333 85.3455 6.92 85.3455 8C85.3455 9.08 85.1588 10.0733 84.7855 10.98C84.4255 11.8867 83.9055 12.6733 83.2255 13.34C82.5588 14.0067 81.7655 14.5267 80.8455 14.9C79.9255 15.26 78.9188 15.44 77.8255 15.44C76.7188 15.44 75.7055 15.26 74.7855 14.9C73.8655 14.5267 73.0655 14.0067 72.3855 13.34C71.7188 12.6733 71.1988 11.8867 70.8255 10.98C70.4655 10.0733 70.2855 9.08 70.2855 8ZM87.6313 0.999999H95.9513V4.02H91.0113V15H87.6313V0.999999ZM110.448 4.52L97.6284 15.7L97.7284 11.48L110.548 0.3L110.448 4.52ZM100.868 0.999999V12.38L97.6284 15.7V0.999999H100.868ZM110.548 0.3V15H107.288V3.74L110.548 0.3ZM116.387 8C116.387 8.85333 116.581 9.59333 116.967 10.22C117.354 10.8333 117.861 11.3 118.487 11.62C119.127 11.94 119.827 12.1 120.587 12.1C121.254 12.1 121.841 12.0133 122.347 11.84C122.854 11.6667 123.307 11.44 123.707 11.16C124.107 10.88 124.461 10.58 124.767 10.26V13.9C124.207 14.34 123.594 14.6867 122.927 14.94C122.261 15.1933 121.414 15.32 120.387 15.32C119.267 15.32 118.234 15.1467 117.287 14.8C116.341 14.4533 115.527 13.9533 114.847 13.3C114.167 12.6467 113.641 11.8733 113.267 10.98C112.894 10.0867 112.707 9.09333 112.707 8C112.707 6.90667 112.894 5.91333 113.267 5.02C113.641 4.12667 114.167 3.35333 114.847 2.7C115.527 2.04667 116.341 1.54667 117.287 1.2C118.234 0.853333 119.267 0.68 120.387 0.68C121.414 0.68 122.261 0.806666 122.927 1.06C123.594 1.31333 124.207 1.66 124.767 2.1V5.74C124.461 5.42 124.107 5.12 123.707 4.84C123.307 4.54667 122.854 4.32 122.347 4.16C121.841 3.98667 121.254 3.9 120.587 3.9C119.827 3.9 119.127 4.06 118.487 4.38C117.861 4.7 117.354 5.16667 116.967 5.78C116.581 6.39333 116.387 7.13333 116.387 8ZM125.525 4.02V0.999999H136.605V4.02H132.745V15H129.365V4.02H125.525ZM150.956 4.52L138.136 15.7L138.236 11.48L151.056 0.3L150.956 4.52ZM141.376 0.999999V12.38L138.136 15.7V0.999999H141.376ZM151.056 0.3V15H147.796V3.74L151.056 0.3ZM154.015 0.999999H157.515V15H154.015V0.999999ZM162.275 0.999999H166.235L160.555 7.56L166.535 15H162.435L156.535 7.66L162.275 0.999999ZM170.2 12.3L170.44 9.72H177.38L177.6 12.3H170.2ZM173.86 6.14L171.9 10.66L172.06 11.4L170.32 15H166.5L173.86 0.12L181.24 15H177.4L175.72 11.54L175.84 10.68L173.86 6.14Z" fill="#FDFDFD"/>
</svg>
